<?xml version="1.0" encoding="iso-8859-1"?>
<!-- Generator: Adobe Illustrator 19.0.0, SVG Export Plug-In . SVG Version: 6.00 Build 0)  -->
<svg version="1.1" id="Layer_1" xmlns="http://www.w3.org/2000/svg" xmlns:xlink="http://www.w3.org/1999/xlink" x="0px" y="0px"
	 viewBox="0 0 408 408" style="enable-background:new 0 0 408 408;" xml:space="preserve">
<g>
	<g>
		<circle cx="345.52" cy="208" r="8"/>
	</g>
</g>
<g>
	<g>
		<circle cx="61.512" cy="208" r="8"/>
	</g>
</g>
<g>
	<g>
		<circle cx="205.512" cy="348" r="8"/>
	</g>
</g>
<g>
	<g>
		<path d="M196.572,256h-49.148c4.436-7.308,13.5-15.608,21.768-23.18c15.844-14.512,32.228-29.516,32.228-47.644
			c0-22.772-18.496-36.376-36.376-36.376c-18.236,0-39.532,10.352-39.532,39.528c0,4.416,3.584,8,8,8s8-3.584,8-8
			c0-21.236,16.456-23.528,23.532-23.528c8.46,0,20.376,6.324,20.376,20.376c0,11.088-14.364,24.24-27.036,35.844
			c-15.284,13.996-29.72,27.22-29.72,42.98v8h67.908c4.416,0,8-3.584,8-8C204.572,259.584,200.988,256,196.572,256z"/>
	</g>
</g>
<g>
	<g>
		<path d="M284,223.996h-16v-68c0-3.56-2.356-6.692-5.776-7.684c-3.408-0.984-7.08,0.404-8.988,3.416l-48,76
			c-1.556,2.468-1.652,5.58-0.244,8.136c1.412,2.552,4.092,4.136,7.008,4.136h40v24c0,4.416,3.584,8,8,8c4.416,0,8-3.584,8-8.004
			v-24h16c4.416,0,8-3.584,8-8C292,227.58,288.416,223.996,284,223.996z M252,224h-25.484L252,183.648V224z"/>
	</g>
</g>
<g>
	<g>
		<path d="M396,192c-6.628,0-12,5.372-12,12c0,99.252-80.748,180-180,180S24,303.252,24,204S104.748,24,204,24
			c40.3,0,78.396,13.016,110.164,37.636c5.236,4.056,12.776,3.108,16.836-2.132c4.06-5.24,3.108-12.776-2.132-16.836
			C292.852,14.752,249.672,0,204,0C91.516,0,0,91.512,0,204c0,112.484,91.516,204,204,204s204-91.516,204-204
			C408,197.372,402.628,192,396,192z"/>
	</g>
</g>
<g>
	<g>
		<path d="M340,3.432c-6.628,0-12,5.372-12,12V60h-44c-6.628,0-12,5.372-12,12s5.372,12,12,12h56c6.628,0,12-5.376,12-12V15.432
			C352,8.804,346.628,3.432,340,3.432z"/>
	</g>
</g>
<g>
	<g>
		<circle cx="205.512" cy="68" r="8"/>
	</g>
</g>
<g>
</g>
<g>
</g>
<g>
</g>
<g>
</g>
<g>
</g>
<g>
</g>
<g>
</g>
<g>
</g>
<g>
</g>
<g>
</g>
<g>
</g>
<g>
</g>
<g>
</g>
<g>
</g>
<g>
</g>
</svg>
