<?xml version="1.0" encoding="iso-8859-1"?>
<!-- Generator: Adobe Illustrator 19.0.0, SVG Export Plug-In . SVG Version: 6.00 Build 0)  -->
<svg version="1.1" id="Capa_1" xmlns="http://www.w3.org/2000/svg" xmlns:xlink="http://www.w3.org/1999/xlink" x="0px" y="0px"
	 viewBox="0 0 512.002 512.002" style="enable-background:new 0 0 512.002 512.002;" xml:space="preserve">
<g>
	<g>
		<path d="M287.152,260.703l-149.684-46.057c-2.619-0.806-5.463-0.323-7.669,1.307c-2.206,1.629-3.501,4.203-3.501,6.949v46.057
			c0,2.274,0.916,4.496,2.522,6.109c1.607,1.612,3.834,2.527,6.114,2.527h149.684c4.271,0,7.898-3.126,8.538-7.352
			C293.79,266.016,291.239,261.963,287.152,260.703z M143.57,260.322v-25.728l83.616,25.728H143.57z"/>
	</g>
</g>
<g>
	<g>
		<path d="M506.405,363.282c-3.241-4.243-7.49-7.864-12.671-10.196l-77.318-34.358c-2.654-1.18-5.469-1.86-8.342-1.871
			c-0.639-8.008-2.193-17.081-4.185-23.868l-8.998-29.995c-1.733-5.631-5.038-10.461-9.056-14.6
			c-4.058-4.093-8.825-7.496-14.422-9.327l-31.474-10.097L302.563,96.263c-0.294-1.013-0.714-1.946-1.111-2.895h23.46
			c4.767,0,8.636-3.869,8.636-8.636c0-4.773-3.869-8.636-8.636-8.636h-48.935h-20.149H172.35
			c-6.304,0.023-11.986,2.447-16.453,6.143c-4.462,3.719-7.893,8.86-9.079,15.043l-12.337,65.786l-40.777-13.08
			c-8.838-2.769-21.474-4.749-30.737-4.807H28.422c-12.7,0.081-22.988,10.11-23.391,22.798l-5.009,195.58H0.018L0,364.318
			c-0.006,6.212,2.522,11.935,6.614,16.016c4.071,4.093,9.81,6.643,16.051,6.638h28.913c8.624,28.319,34.934,48.935,66.08,48.935
			c31.164,0,57.49-20.656,66.097-49.01l40.507-0.029c8.595,28.37,34.928,49.039,66.103,49.039c31.209,0,57.565-20.714,66.126-49.131
			l28.872-0.018c2.004-0.006,3.903-0.346,5.752-0.829v18.313c-0.023,5.647,2.125,11.031,5.901,14.842
			c3.748,3.84,9.073,6.033,14.623,6.016c1.232,0,2.476-0.103,3.719-0.311l75.233-12.539c4.836-0.823,9.177-2.28,12.896-4.387
			c1.865-1.082,3.598-2.303,5.204-4.087c0.801-0.898,1.571-1.957,2.206-3.299c0.628-1.335,1.106-3.011,1.1-4.87
			c0-3.167,0-10.939,0.006-17.272C511.948,372.47,509.576,367.547,506.405,363.282z M255.832,93.367h20.151
			c1.67-0.029,4.087,0.777,6.091,2.314c2.02,1.508,3.449,3.622,3.869,5.233l34.064,121.658l-92.332-29.62l-18.975-99.586H255.832z
			 M163.788,100.466c0.282-1.595,1.41-3.523,3.131-4.933c1.704-1.434,3.811-2.188,5.429-2.165h18.762l17.876,93.604l-57.934-18.584
			L163.788,100.466z M117.663,418.642c-28.572,0-51.814-23.242-51.814-51.814s23.242-51.814,51.814-51.814
			s51.814,23.242,51.814,51.814S146.235,418.642,117.663,418.642z M290.375,418.642c-28.572,0-51.814-23.242-51.814-51.814
			s23.242-51.814,51.814-51.814s51.814,23.242,51.814,51.814S318.948,418.642,290.375,418.642z M391.118,335.113
			c0,0.018,0,0.034,0,0.052v18.077c0-0.001,0,10.482,0,10.482c0,1.578-0.622,2.976-1.699,4.064
			c-1.082,1.077-2.487,1.699-4.058,1.704l-26.034,0.018c0.034-0.898,0.132-1.779,0.132-2.682c0-38.146-30.933-69.085-69.085-69.085
			s-69.085,30.938-69.085,69.085c0,0.938,0.11,1.848,0.139,2.774l-34.825,0.023c0.034-0.938,0.139-1.86,0.139-2.803
			c0-38.146-30.933-69.085-69.085-69.085s-69.085,30.938-69.085,69.085c0,0.973,0.11,1.917,0.144,2.879H22.672
			c-3.052-0.011-5.382-2.377-5.4-5.382l0.006-0.167l5.014-195.735c0.011-3.126,2.999-6.044,6.131-5.976h34.542
			c6.574-0.063,19.223,1.917,25.464,3.984l277.716,89.091c1.946,0.581,4.957,2.482,7.363,4.98c2.453,2.453,4.295,5.51,4.848,7.462
			l8.998,29.995c1.964,6.356,3.822,19.045,3.771,25.699L391.118,335.113z M494.751,392.975c-0.507,0.282-1.14,0.593-1.905,0.88
			c-1.428,0.556-3.206,1.05-5.083,1.367l-75.222,12.539l-0.887,0.075c-1.18-0.023-1.802-0.368-2.314-0.864
			c-0.483-0.518-0.921-1.25-0.938-2.723v-69.085c-0.006-0.438,0.04-0.737,0.086-0.973c0.236,0.058,0.541,0.15,0.933,0.328
			l77.311,34.358c2.056,0.887,4.387,2.781,5.918,4.836c1.589,2.027,2.182,4.174,2.107,4.634
			C494.751,383.32,494.751,389.152,494.751,392.975z"/>
	</g>
</g>
<g>
	<g>
		<path d="M290.375,338.043c-15.89,0-28.785,12.891-28.785,28.785c0,15.896,12.896,28.785,28.785,28.785
			s28.785-12.891,28.785-28.785C319.161,350.933,306.265,338.043,290.375,338.043z M290.375,378.342
			c-6.356,0-11.514-5.164-11.514-11.514s5.158-11.514,11.514-11.514c6.356,0,11.514,5.164,11.514,11.514
			C301.89,373.178,296.726,378.342,290.375,378.342z"/>
	</g>
</g>
<g>
	<g>
		<path d="M117.663,338.043c-15.89,0-28.785,12.891-28.785,28.785c0,15.896,12.896,28.785,28.785,28.785
			s28.785-12.891,28.785-28.785C146.449,350.933,133.553,338.043,117.663,338.043z M117.663,378.342
			c-6.356,0-11.514-5.164-11.514-11.514s5.158-11.514,11.514-11.514s11.514,5.164,11.514,11.514
			C129.177,373.178,124.013,378.342,117.663,378.342z"/>
	</g>
</g>
<g>
</g>
<g>
</g>
<g>
</g>
<g>
</g>
<g>
</g>
<g>
</g>
<g>
</g>
<g>
</g>
<g>
</g>
<g>
</g>
<g>
</g>
<g>
</g>
<g>
</g>
<g>
</g>
<g>
</g>
</svg>
